<svg width="4074" height="556" xmlns="http://www.w3.org/2000/svg" xmlns:xlink="http://www.w3.org/1999/xlink" xml:space="preserve" overflow="hidden"><g transform="translate(-259 -749)"><path d="M329.583 938.51C321.066 884.26 364.923 834.299 427.542 826.92 452.916 823.93 478.715 828.4 500.809 839.615 524.221 801.381 578.93 786.85 623.005 807.159 630.712 810.71 637.785 815.211 644.005 820.522 662.239 788.829 706.652 775.953 743.205 791.762 753.322 796.138 762.147 802.466 769.003 810.261 798.392 780.29 850.325 776.587 884.997 801.992 899.57 812.669 909.392 827.397 912.779 843.648 960.932 855.032 989.34 898.151 976.228 939.958 975.126 943.473 973.743 946.917 972.089 950.265 1010.71 993.827 1001.25 1056.26 950.973 1089.72 935.321 1100.14 916.833 1106.88 897.296 1109.3 896.862 1156.17 852.624 1193.86 798.489 1193.48 780.402 1193.35 762.709 1188.9 747.366 1180.61 729.055 1233.15 665.187 1262.85 604.712 1246.94 579.367 1240.27 557.469 1226.17 542.753 1207.04 480.834 1239.4 400.465 1222 363.244 1168.16 362.775 1167.49 362.314 1166.8 361.862 1166.12 321.338 1170.23 284.632 1145.17 279.876 1110.16 277.34 1091.49 284.451 1072.81 299.313 1059.09 264.226 1041.19 252.439 1001.91 272.987 971.345 284.841 953.713 305.633 942.057 328.967 939.961Z" stroke="#042433" stroke-width="6.875" stroke-miterlimit="8" fill="#FFFFFF" fill-rule="evenodd"/><path d="M343.02 1065.87C328.041 1066.89 313.063 1063.89 300.098 1057.27M380.891 1159.96C374.868 1162.03 368.554 1163.42 362.112 1164.07M542.711 1205.17C538.18 1199.28 534.387 1192.98 531.395 1186.4M751.958 1158.36C751.291 1165.34 749.777 1172.25 747.439 1178.96M841.797 1031.11C875.76 1045.43 897.193 1075.37 896.891 1108.08M971.744 949.124C966.244 960.261 957.847 970.14 947.212 977.987M912.879 842.03C913.816 846.528 914.25 851.092 914.174 855.661M756.211 826.13C759.407 819.842 763.64 813.986 768.778 808.746M638.667 834.415C639.971 829.218 642.016 824.182 644.754 819.422M500.722 839.506C508.717 843.564 516.113 848.448 522.748 854.051M333.43 953.816C331.685 948.811 330.399 943.694 329.586 938.513" stroke="#042433" stroke-width="6.875" stroke-miterlimit="8" fill="none" fill-rule="evenodd"/><text font-family="Malgun Gothic,Malgun Gothic_MSFontService,sans-serif" font-weight="400" font-size="83" transform="matrix(1 0 0 1 457.226 1037)">Internet</text><path d="M1320.5 777.667C1320.5 763.768 1331.77 752.5 1345.67 752.5L1795.33 752.5C1809.23 752.5 1820.5 763.768 1820.5 777.667L1820.5 878.332C1820.5 892.232 1809.23 903.5 1795.33 903.5L1345.67 903.5C1331.77 903.5 1320.5 892.232 1320.5 878.332Z" stroke="#042433" stroke-width="6.875" stroke-miterlimit="8" fill="#FFFFFF" fill-rule="evenodd"/><text font-family="Malgun Gothic,Malgun Gothic_MSFontService,sans-serif" font-weight="400" font-size="83" transform="matrix(1 0 0 1 1420.94 859)">Request</text><path d="M1320.5 1155.67C1320.5 1141.77 1331.77 1130.5 1345.67 1130.5L1795.33 1130.5C1809.23 1130.5 1820.5 1141.77 1820.5 1155.67L1820.5 1256.33C1820.5 1270.23 1809.23 1281.5 1795.33 1281.5L1345.67 1281.5C1331.77 1281.5 1320.5 1270.23 1320.5 1256.33Z" stroke="#042433" stroke-width="6.875" stroke-miterlimit="8" fill="#FFFFFF" fill-rule="evenodd"/><text font-family="Malgun Gothic,Malgun Gothic_MSFontService,sans-serif" font-weight="400" font-size="83" transform="matrix(1 0 0 1 1393.15 1237)">Response</text><path d="M2008.5 849.334C2008.5 806.348 2043.35 771.5 2086.33 771.5L2738.67 771.5C2781.65 771.5 2816.5 806.348 2816.5 849.334L2816.5 1160.67C2816.5 1203.65 2781.65 1238.5 2738.67 1238.5L2086.33 1238.5C2043.35 1238.5 2008.5 1203.65 2008.5 1160.67Z" stroke="#042433" stroke-width="6.875" stroke-miterlimit="8" fill="#FFFFFF" fill-rule="evenodd"/><text font-family="Malgun Gothic,Malgun Gothic_MSFontService,sans-serif" font-weight="400" font-size="83" transform="matrix(1 0 0 1 2227.8 1036)">Controller</text><path d="M2988.5 966.667C2988.5 952.768 2999.77 941.5 3013.67 941.5L3463.33 941.5C3477.23 941.5 3488.5 952.768 3488.5 966.667L3488.5 1067.33C3488.5 1081.23 3477.23 1092.5 3463.33 1092.5L3013.67 1092.5C2999.77 1092.5 2988.5 1081.23 2988.5 1067.33Z" stroke="#042433" stroke-width="6.875" stroke-miterlimit="8" fill="#FFFFFF" fill-rule="evenodd"/><text font-family="Malgun Gothic,Malgun Gothic_MSFontService,sans-serif" font-weight="400" font-size="83" transform="matrix(1 0 0 1 3118.67 1048)">Model</text><path d="M3701.5 939.5C3701.5 919.618 3842.08 903.5 4015.5 903.5 4188.92 903.5 4329.5 919.618 4329.5 939.5L4329.5 1083.5C4329.5 1103.38 4188.92 1119.5 4015.5 1119.5 3842.08 1119.5 3701.5 1103.38 3701.5 1083.5Z" fill="#FFFFFF" fill-rule="evenodd"/><path d="M4329.5 939.5C4329.5 959.382 4188.92 975.5 4015.5 975.5 3842.08 975.5 3701.5 959.382 3701.5 939.5" stroke="#042433" stroke-width="6.875" stroke-miterlimit="8" fill="none" fill-rule="evenodd"/><path d="M3701.5 939.5C3701.5 919.618 3842.08 903.5 4015.5 903.5 4188.92 903.5 4329.5 919.618 4329.5 939.5L4329.5 1083.5C4329.5 1103.38 4188.92 1119.5 4015.5 1119.5 3842.08 1119.5 3701.5 1103.38 3701.5 1083.5Z" stroke="#042433" stroke-width="6.875" stroke-miterlimit="8" fill="none" fill-rule="evenodd"/><text font-family="Malgun Gothic,Malgun Gothic_MSFontService,sans-serif" font-weight="400" font-size="83" transform="matrix(1 0 0 1 3961.43 1061)">DB</text><path d="M0.503195-3.40047 303.051 41.3699 302.044 48.1708-0.503195 3.40047ZM300.026 30.4976 325.217 48.125 296.001 57.7013Z" fill="#156082" transform="matrix(1 0 0 -1 995.5 875.625)"/><path d="M1820.5 824.062 1971.65 824.063 1971.65 830.938 1820.5 830.937ZM1967.07 813.75 1994.57 827.5 1967.07 841.25Z" fill="#156082"/><path d="M2816.5 978.062 2967.65 978.063 2967.65 984.938 2816.5 984.937ZM2963.07 967.75 2990.57 981.5 2963.07 995.25Z" fill="#156082"/><path d="M7.12695e-06-3.4375 151.15-3.43719 151.15 3.43781-7.12695e-06 3.4375ZM146.567-13.7497 174.067 0.000360892 146.567 13.7503Z" fill="#156082" transform="matrix(-1 0 0 1 2990.57 1038.5)"/><path d="M3518.5 978.062 3669.65 978.063 3669.65 984.938 3518.5 984.937ZM3665.07 967.75 3692.57 981.5 3665.07 995.25Z" fill="#156082"/><path d="M7.12695e-06-3.4375 151.15-3.43719 151.15 3.43781-7.12695e-06 3.4375ZM146.567-13.7497 174.067 0.000360892 146.567 13.7503Z" fill="#156082" transform="matrix(-1 0 0 1 3692.57 1038.5)"/><path d="M7.12695e-06-3.4375 151.15-3.43719 151.15 3.43781-7.12695e-06 3.4375ZM146.567-13.7497 174.067 0.000360892 146.567 13.7503Z" fill="#156082" transform="matrix(-1 0 0 1 2005.57 1210.5)"/><path d="M1319.58 1209.23 1016 1103.3 1018.27 1096.8 1321.85 1202.74ZM1016.93 1114.54 995.5 1092.5 1025.99 1088.58Z" fill="#156082"/></g></svg>