<svg width="4046" height="1295" xmlns="http://www.w3.org/2000/svg" xmlns:xlink="http://www.w3.org/1999/xlink" xml:space="preserve" overflow="hidden"><g transform="translate(-259 -206)"><path d="M309.09 896.93C303.214 857.232 333.471 820.673 376.671 815.273 394.177 813.085 411.975 816.356 427.218 824.562 443.369 796.584 481.112 785.951 511.519 800.813 516.836 803.411 521.716 806.705 526.007 810.591 538.586 787.399 569.226 777.977 594.444 789.546 601.423 792.748 607.512 797.379 612.242 803.083 632.517 781.151 668.345 778.442 692.265 797.032 702.319 804.845 709.095 815.622 711.431 827.514 744.652 835.844 764.25 867.397 755.205 897.99 754.444 900.562 753.49 903.082 752.349 905.531 778.993 937.409 772.47 983.098 737.781 1007.58 726.983 1015.2 714.229 1020.14 700.75 1021.91 700.45 1056.2 669.931 1083.78 632.584 1083.51 620.106 1083.41 607.899 1080.15 597.315 1074.09 584.682 1112.54 540.62 1134.27 498.899 1122.63 481.414 1117.75 466.307 1107.43 456.154 1093.43 413.436 1117.11 357.991 1104.37 332.313 1064.98 331.989 1064.49 331.671 1063.99 331.359 1063.48 303.402 1066.49 278.079 1048.16 274.797 1022.53 273.048 1008.88 277.954 995.205 288.207 985.165 264.001 972.068 255.869 943.321 270.045 920.957 278.223 908.055 292.567 899.525 308.665 897.992Z" stroke="#042433" stroke-width="6.875" stroke-miterlimit="8" fill="#FFFFFF" fill-rule="evenodd"/><path d="M318.36 990.129C308.026 990.872 297.693 988.677 288.749 983.837M344.487 1058.98C340.332 1060.5 335.976 1061.51 331.531 1061.99M456.125 1092.06C452.999 1087.75 450.382 1083.14 448.319 1078.32M600.482 1057.81C600.023 1062.92 598.978 1067.97 597.365 1072.88M662.462 964.688C685.893 975.168 700.679 997.081 700.47 1021.01M752.111 904.697C748.316 912.846 742.524 920.075 735.187 925.818M711.501 826.33C712.147 829.621 712.446 832.961 712.394 836.305M603.417 814.695C605.622 810.093 608.542 805.809 612.087 801.974M522.324 820.757C523.224 816.954 524.635 813.269 526.524 809.787M427.158 824.483C432.673 827.452 437.775 831.026 442.353 835.127M311.744 908.131C310.54 904.468 309.653 900.724 309.092 896.932" stroke="#042433" stroke-width="6.875" stroke-miterlimit="8" fill="none" fill-rule="evenodd"/><text font-family="Malgun Gothic,Malgun Gothic_MSFontService,sans-serif" font-weight="400" font-size="64" transform="matrix(1 0 0 1 414.027 970)">Client</text><path d="M918.5 777.833C918.5 767.708 926.708 759.5 936.834 759.5L1398.17 759.5C1408.29 759.5 1416.5 767.708 1416.5 777.833L1416.5 851.166C1416.5 861.292 1408.29 869.5 1398.17 869.5L936.834 869.5C926.708 869.5 918.5 861.292 918.5 851.166Z" stroke="#042433" stroke-width="6.875" stroke-miterlimit="8" fill="#FFFFFF" fill-rule="evenodd"/><text font-family="Malgun Gothic,Malgun Gothic_MSFontService,sans-serif" font-weight="400" font-size="64" transform="matrix(1 0 0 1 976.128 839)">FormRequest</text><path d="M918.5 1048C918.5 1037.78 926.783 1029.5 937 1029.5L1398 1029.5C1408.22 1029.5 1416.5 1037.78 1416.5 1048L1416.5 1122C1416.5 1132.22 1408.22 1140.5 1398 1140.5L937 1140.5C926.783 1140.5 918.5 1132.22 918.5 1122Z" stroke="#042433" stroke-width="6.875" stroke-miterlimit="8" fill="#FFFFFF" fill-rule="evenodd"/><text font-family="Malgun Gothic,Malgun Gothic_MSFontService,sans-serif" font-weight="400" font-size="64" transform="matrix(1 0 0 1 965.758 1109)">JsonResponse</text><path d="M1608.5 837.834C1608.5 806.17 1634.17 780.5 1665.83 780.5L1953.17 780.5C1984.83 780.5 2010.5 806.17 2010.5 837.834L2010.5 1067.17C2010.5 1098.83 1984.83 1124.5 1953.17 1124.5L1665.83 1124.5C1634.17 1124.5 1608.5 1098.83 1608.5 1067.17Z" stroke="#042433" stroke-width="6.875" stroke-miterlimit="8" fill="#FFFFFF" fill-rule="evenodd"/><text font-family="Malgun Gothic,Malgun Gothic_MSFontService,sans-serif" font-weight="400" font-size="64" transform="matrix(1 0 0 1 1664.77 977)">Controller</text><path d="M3314.5 930C3314.5 919.783 3322.78 911.5 3333 911.5L3640 911.5C3650.22 911.5 3658.5 919.783 3658.5 930L3658.5 1004C3658.5 1014.22 3650.22 1022.5 3640 1022.5L3333 1022.5C3322.78 1022.5 3314.5 1014.22 3314.5 1004Z" stroke="#042433" stroke-width="6.875" stroke-miterlimit="8" fill="#FFFFFF" fill-rule="evenodd"/><text font-family="Malgun Gothic,Malgun Gothic_MSFontService,sans-serif" font-weight="400" font-size="64" transform="matrix(1 0 0 1 3393 991)">Model</text><path d="M3868.5 902.833C3868.5 888.29 3965.43 876.5 4085 876.5 4204.57 876.5 4301.5 888.29 4301.5 902.833L4301.5 1008.17C4301.5 1022.71 4204.57 1034.5 4085 1034.5 3965.43 1034.5 3868.5 1022.71 3868.5 1008.17Z" fill="#FFFFFF" fill-rule="evenodd"/><path d="M4301.5 902.833C4301.5 917.377 4204.57 929.167 4085 929.167 3965.43 929.167 3868.5 917.377 3868.5 902.833" stroke="#042433" stroke-width="6.875" stroke-miterlimit="8" fill="none" fill-rule="evenodd"/><path d="M3868.5 902.833C3868.5 888.29 3965.43 876.5 4085 876.5 4204.57 876.5 4301.5 888.29 4301.5 902.833L4301.5 1008.17C4301.5 1022.71 4204.57 1034.5 4085 1034.5 3965.43 1034.5 3868.5 1022.71 3868.5 1008.17Z" stroke="#042433" stroke-width="6.875" stroke-miterlimit="8" fill="none" fill-rule="evenodd"/><text font-family="Malgun Gothic,Malgun Gothic_MSFontService,sans-serif" font-weight="400" font-size="64" transform="matrix(1 0 0 1 4043.28 992)">DB</text><path d="M2730.5 930C2730.5 919.783 2738.78 911.5 2749 911.5L3057 911.5C3067.22 911.5 3075.5 919.783 3075.5 930L3075.5 1004C3075.5 1014.22 3067.22 1022.5 3057 1022.5L2749 1022.5C2738.78 1022.5 2730.5 1014.22 2730.5 1004Z" stroke="#042433" stroke-width="6.875" stroke-miterlimit="8" fill="#FFFFFF" fill-rule="evenodd"/><text font-family="Malgun Gothic,Malgun Gothic_MSFontService,sans-serif" font-weight="400" font-size="64" transform="matrix(1 0 0 1 2799.01 991)">Service</text><path d="M2237.5 775.834C2237.5 765.708 2245.71 757.5 2255.83 757.5L2563.17 757.5C2573.29 757.5 2581.5 765.708 2581.5 775.834L2581.5 849.167C2581.5 859.292 2573.29 867.5 2563.17 867.5L2255.83 867.5C2245.71 867.5 2237.5 859.292 2237.5 849.167Z" stroke="#042433" stroke-width="6.875" stroke-miterlimit="8" fill="#FFFFFF" fill-rule="evenodd"/><text font-family="Malgun Gothic,Malgun Gothic_MSFontService,sans-serif" font-weight="400" font-size="64" transform="matrix(1 0 0 1 2347.14 837)">DTO</text><path d="M2237.5 1052.83C2237.5 1042.71 2245.71 1034.5 2255.83 1034.5L2563.17 1034.5C2573.29 1034.5 2581.5 1042.71 2581.5 1052.83L2581.5 1126.17C2581.5 1136.29 2573.29 1144.5 2563.17 1144.5L2255.83 1144.5C2245.71 1144.5 2237.5 1136.29 2237.5 1126.17Z" stroke="#042433" stroke-width="6.875" stroke-miterlimit="8" fill="#FFFFFF" fill-rule="evenodd"/><text font-family="Malgun Gothic,Malgun Gothic_MSFontService,sans-serif" font-weight="400" font-size="64" transform="matrix(1 0 0 1 2332.24 1114)">DTO?</text><text font-family="Malgun Gothic,Malgun Gothic_MSFontService,sans-serif" font-weight="400" font-size="55" transform="matrix(1 0 0 1 2533.41 1257)">DTO</text><text font-family="Malgun Gothic,Malgun Gothic_MSFontService,sans-serif" font-weight="400" font-size="55" transform="matrix(1 0 0 1 2533.41 1323)">Model</text><text font-family="Malgun Gothic,Malgun Gothic_MSFontService,sans-serif" font-weight="400" font-size="55" transform="matrix(1 0 0 1 2533.41 1389)">Collection</text><text font-family="Malgun Gothic,Malgun Gothic_MSFontService,sans-serif" font-weight="400" font-size="55" transform="matrix(1 0 0 1 2533.41 1455)">PageCollection</text><path d="M0-3.4375 195.905-3.4375 195.905 68.4212 189.03 68.4212 189.03 0 192.468 3.4375 0 3.4375ZM206.218 63.8379 192.468 91.3379 178.718 63.8379Z" fill="#156082" transform="matrix(1.83697e-16 1 1 -1.83697e-16 2409.5 1144.5)"/><path d="M2.03343-2.77157 134.208 94.2013 130.141 99.7444-2.03343 2.77157ZM136.613 83.1754 150.652 110.529 120.345 105.348Z" fill="#156082" transform="matrix(1 0 0 -1 768.5 915.029)"/><path d="M1448.5 801.062 1585.4 801.063 1585.4 807.938 1448.5 807.937ZM1580.82 790.75 1608.32 804.5 1580.82 818.25Z" fill="#156082"/><path d="M2040.5 801.062 2177.4 801.063 2177.4 807.938 2040.5 807.937ZM2172.82 790.75 2200.32 804.5 2172.82 818.25Z" fill="#156082"/><path d="M2581.5 809.063 2906.3 809.063 2906.3 888.562 2899.43 888.562 2899.43 812.5 2902.86 815.938 2581.5 815.938ZM2916.61 883.978 2902.86 911.478 2889.11 883.978Z" fill="#156082"/><path d="M2906.3 1022.5 2906.3 1093.42 2604.42 1093.42 2604.42 1086.55 2902.86 1086.55 2899.43 1089.99 2899.43 1022.5ZM2609 1103.74 2581.5 1089.99 2609 1076.24Z" fill="#156082"/><path d="M7.76234e-06-3.4375 136.902-3.43719 136.902 3.43781-7.76234e-06 3.4375ZM132.319-13.7497 159.819 0.000360892 132.319 13.7503Z" fill="#156082" transform="matrix(-1 0 0 1 2200.32 1082.5)"/><path d="M7.76234e-06-3.4375 136.902-3.43719 136.902 3.43781-7.76234e-06 3.4375ZM132.319-13.7497 159.819 0.000360892 132.319 13.7503Z" fill="#156082" transform="matrix(-1 0 0 1 1576.32 1082.5)"/><path d="M917.424 1086.08 786.583 1009.99 790.039 1004.05 920.88 1080.13ZM785.361 1021.21 768.5 995.5 799.185 997.438Z" fill="#156082"/><path d="M3113.5 934.062 3250.4 934.063 3250.4 940.938 3113.5 940.937ZM3245.82 923.75 3273.32 937.5 3245.82 951.25Z" fill="#156082"/><path d="M7.76234e-06-3.4375 136.902-3.43719 136.902 3.43781-7.76234e-06 3.4375ZM132.319-13.7497 159.819 0.000360892 132.319 13.7503Z" fill="#156082" transform="matrix(-1 0 0 1 3273.32 993.5)"/><path d="M3695.5 934.062 3832.4 934.063 3832.4 940.938 3695.5 940.937ZM3827.82 923.75 3855.32 937.5 3827.82 951.25Z" fill="#156082"/><path d="M7.76234e-06-3.4375 136.902-3.43719 136.902 3.43781-7.76234e-06 3.4375ZM132.319-13.7497 159.819 0.000360892 132.319 13.7503Z" fill="#156082" transform="matrix(-1 0 0 1 3855.32 993.5)"/><text font-family="Malgun Gothic,Malgun Gothic_MSFontService,sans-serif" font-weight="400" font-size="55" transform="matrix(1 0 0 1 906.062 400)">ListQueryParam</text><text font-family="Malgun Gothic,Malgun Gothic_MSFontService,sans-serif" font-weight="400" font-size="55" transform="matrix(1 0 0 1 941.583 466)">CountryParam</text><text font-family="Malgun Gothic,Malgun Gothic_MSFontService,sans-serif" font-weight="400" font-size="55" transform="matrix(1 0 0 1 915.16 532)">UserTypeParam</text><text font-family="Malgun Gothic,Malgun Gothic_MSFontService,sans-serif" font-weight="400" font-size="55" transform="matrix(1 0 0 1 740.604 598)">EvalTargetQueryParam</text><path d="M1625.5 261.062 1813.19 261.062 1813.19 757.636 1806.31 757.636 1806.31 264.5 1809.75 267.937 1625.5 267.937ZM1823.5 753.053 1809.75 780.553 1796 753.053Z" fill="#156082"/><path d="M1207.5 227.834C1207.5 217.708 1215.71 209.5 1225.83 209.5L1607.17 209.5C1617.29 209.5 1625.5 217.708 1625.5 227.834L1625.5 301.166C1625.5 311.292 1617.29 319.5 1607.17 319.5L1225.83 319.5C1215.71 319.5 1207.5 311.292 1207.5 301.166Z" stroke="#042433" stroke-width="6.875" stroke-miterlimit="8" fill="#FFFFFF" fill-rule="evenodd"/><text font-family="Malgun Gothic,Malgun Gothic_MSFontService,sans-serif" font-weight="400" font-size="64" transform="matrix(1 0 0 1 1261.65 289)">Custom DI</text><path d="M1419.46 319.5 1419.46 482.926 1352.42 482.926 1352.42 476.051 1416.03 476.051 1412.59 479.488 1412.59 319.5ZM1357 493.238 1329.5 479.488 1357 465.738Z" fill="#156082"/></g></svg>